<svg width="26" height="26" viewBox="0 0 26 26" fill="none" xmlns="http://www.w3.org/2000/svg">
<path fill-rule="evenodd" clip-rule="evenodd" d="M12.1535 0.0138234C5.92392 0.51513 1.05584 5.01987 0.108161 11.1603C-0.0363144 12.0964 -0.036001 13.9249 0.108788 14.8574C1.00568 20.6338 5.37837 25.0039 11.1502 25.8921C12.0868 26.0363 13.9171 26.0359 14.8499 25.8914C16.6678 25.6098 18.402 24.9715 19.9291 24.0219C23.1081 22.0452 25.3047 18.6692 25.8922 14.8574C26.0359 13.9242 26.0359 12.0936 25.8922 11.1603C25.5495 8.93714 24.6808 6.8747 23.3392 5.09951C22.8355 4.43309 21.5817 3.18014 20.9149 2.67683C19.1287 1.32875 17.0536 0.455224 14.8813 0.136894C14.2005 0.0371342 12.7034 -0.0304169 12.1535 0.0138234Z" fill="url(#paint0_linear_729_20190)"/>
<path fill-rule="evenodd" clip-rule="evenodd" d="M11.3068 5.01846C11.1704 5.15369 10.9532 5.58967 10.824 5.98731C10.6948 6.38495 10.534 6.71018 10.4665 6.71007C10.3991 6.70997 10.1758 6.53282 9.97045 6.31641C9.51174 5.83301 9.07937 5.66137 8.7413 5.82852C8.24444 6.0741 8.3045 6.71742 8.89599 7.48556C9.39439 8.13286 9.57479 8.79056 9.56224 9.91585C9.54435 11.5322 9.32065 11.7771 8.70386 10.8556C8.27128 10.2095 7.95533 9.97378 7.52151 9.97378C7.30409 9.97378 7.16123 10.0503 7.04223 10.2304C6.79067 10.6111 6.99924 11.2228 7.63053 11.9565C8.2575 12.685 8.4632 13.0662 8.42165 13.4225C8.37804 13.7967 8.07638 13.8203 7.46392 13.4973C6.8462 13.1716 6.5463 13.1693 6.2253 13.4877C5.67239 14.0358 5.99595 14.6726 7.10991 15.2288C8.24845 15.7974 8.85258 16.4493 8.85258 17.1094C8.85258 17.2884 8.78614 17.3169 8.36405 17.3182C7.77514 17.32 7.41948 17.4827 7.21492 17.844C7.09356 18.0586 7.08677 18.1665 7.1817 18.3731C7.36261 18.7668 7.85896 18.9616 8.90833 19.0508L9.85752 19.1314L10.615 19.7644C12.5264 21.3619 14.2433 21.7914 15.3598 20.9516C15.9201 20.5303 16.3891 19.8339 16.6635 19.0161C16.9695 18.1042 17.0339 18.0424 17.8005 17.9244C18.942 17.7488 19.2403 17.5514 19.2403 16.9722C19.2403 16.4743 18.6733 16.2841 17.8862 16.5179C17.5859 16.6072 17.4558 16.6078 17.368 16.5207C17.1461 16.3007 17.4602 15.9201 18.5214 15.1232C19.0943 14.693 19.6521 14.196 19.7613 14.0187C20.0547 13.5414 20.0242 12.996 19.6893 12.7348C19.1403 12.3065 18.5923 12.5171 17.8761 13.4315C17.6083 13.7734 17.3244 14.0532 17.245 14.0532C16.8719 14.0532 16.758 12.7375 17.0717 12.0525C17.3112 11.5294 17.5679 11.3477 18.428 11.0931C19.4922 10.7779 19.978 10.1741 19.6124 9.62081C19.3935 9.28947 18.904 9.21185 18.2633 9.40705C17.5881 9.61265 17.4296 9.60603 17.1834 9.36187C17.0422 9.22195 16.9777 9.02186 16.9777 8.72447C16.9776 8.31796 17.0249 8.24667 17.7379 7.57715C18.7411 6.63522 18.8729 6.16588 18.2104 5.89379C17.8292 5.73724 17.4796 5.82291 16.9083 6.21259L16.4592 6.51895L16.2299 6.24278C15.4734 5.33175 15.0957 5.1336 14.6192 5.39753C14.2365 5.60966 14.2122 6.20484 14.5615 6.81226C15.2184 7.95459 15.3568 8.36569 15.4105 9.33475C15.4479 10.0075 15.4259 10.3207 15.3334 10.4311C15.1506 10.6495 15.1091 10.6352 14.5738 10.1679C13.9415 9.61592 13.409 9.52576 13.0258 9.90576C12.5406 10.3868 12.733 10.9418 13.7686 12.0493C14.4273 12.7538 14.8178 13.4494 14.8178 13.9183C14.8178 14.1005 14.5647 14.0893 14.4064 13.9002C14.2405 13.702 13.8507 13.704 13.6835 13.9038C13.464 14.166 13.5517 14.6577 13.9602 15.4558C14.3109 16.1409 14.3499 16.2958 14.3523 17.0139C14.3545 17.6673 14.316 17.8634 14.139 18.0994C13.8598 18.4717 13.5484 18.5176 13.3365 18.2176C13.1315 17.9274 13.1302 17.6601 13.3299 16.8958C13.5218 16.1614 13.4037 15.5692 13.0147 15.3164C12.5155 14.9921 11.9543 15.3577 11.7296 16.1536C11.5722 16.7112 11.4777 16.7793 11.2793 16.4786C10.9099 15.9187 10.6949 14.46 10.9023 13.9194C11.0005 13.6631 11.4633 13.4413 11.8999 13.4413C12.0318 13.4413 12.3261 13.3672 12.554 13.2769C12.9987 13.1004 13.1424 12.8259 13.0276 12.3723C12.9605 12.1072 12.4625 11.7863 12.1639 11.8157C11.7702 11.8547 11.6304 11.7978 11.5744 11.5761C11.4165 10.9525 12.2367 10.0103 13.282 9.61418C14.3076 9.22562 14.6653 8.65196 14.2492 8.0628C13.9948 7.70279 13.5019 7.67444 12.741 7.97631C11.8121 8.34478 11.6295 8.33081 11.6295 7.89105C11.6295 7.64548 11.7353 7.41122 11.9865 7.10067C12.5791 6.36802 12.79 5.90858 12.7233 5.49523C12.6101 4.79399 11.8061 4.52332 11.3068 5.01846Z" fill="url(#paint1_linear_729_20190)"/>
<defs>
<linearGradient id="paint0_linear_729_20190" x1="3.6294" y1="3.8669" x2="22.8563" y2="29.8492" gradientUnits="userSpaceOnUse">
<stop stop-color="#3DA3FB"/>
<stop offset="1" stop-color="#8CBAE1"/>
</linearGradient>
<linearGradient id="paint1_linear_729_20190" x1="12.9617" y1="4.76562" x2="16.1021" y2="29.8497" gradientUnits="userSpaceOnUse">
<stop stop-color="#023969"/>
<stop offset="1" stop-color="#045FAD"/>
</linearGradient>
</defs>
</svg>
