<svg width="40" height="40" viewBox="0 0 40 40" fill="none" xmlns="http://www.w3.org/2000/svg">
<rect width="40" height="40" rx="20" fill="#FFF1F0"/>
<path d="M14.6872 17H22.8V15.1538C22.8 14.3846 22.5278 13.7308 21.9833 13.1923C21.4389 12.6538 20.7778 12.3846 20 12.3846C19.2222 12.3846 18.5611 12.6538 18.0167 13.1923C17.4722 13.7308 17.2 14.3846 17.2 15.1538H15.8C15.8 14.0012 16.2086 13.0208 17.0259 12.2125C17.8432 11.4042 18.8346 11 20 11C21.1654 11 22.1568 11.4042 22.9741 12.2125C23.7914 13.0208 24.2 14.0012 24.2 15.1538V17H25.3128C25.7782 17 26.1758 17.163 26.5056 17.489C26.8352 17.8152 27 18.2084 27 18.6687V27.3313C27 27.7916 26.8352 28.1848 26.5056 28.511C26.1758 28.837 25.7782 29 25.3128 29H14.6872C14.2218 29 13.8242 28.837 13.4944 28.511C13.1648 28.1848 13 27.7916 13 27.3313V18.6687C13 18.2084 13.1648 17.8152 13.4944 17.489C13.8242 17.163 14.2218 17 14.6872 17ZM14.6872 27.6154H25.3128C25.3966 27.6154 25.4654 27.5888 25.5193 27.5355C25.5731 27.4823 25.6 27.4142 25.6 27.3313V18.6687C25.6 18.5858 25.5731 18.5177 25.5193 18.4645C25.4654 18.4112 25.3966 18.3846 25.3128 18.3846H14.6872C14.6034 18.3846 14.5346 18.4112 14.4807 18.4645C14.4269 18.5177 14.4 18.5858 14.4 18.6687V27.3313C14.4 27.4142 14.4269 27.4823 14.4807 27.5355C14.5346 27.5888 14.6034 27.6154 14.6872 27.6154Z" fill="#222732"/>
</svg>
